<svg aria-roledescription="er" role="graphics-document document" viewBox="0 0 758.8829956054688 1022" style="max-width: 758.8829956054688px;" xmlns="http://www.w3.org/2000/svg" width="100%" id="mermaidSvgChart"><style>#mermaidSvgChart{font-family:"trebuchet ms",verdana,arial,sans-serif;font-size:16px;fill:#ccc;}#mermaidSvgChart .error-icon{fill:#a44141;}#mermaidSvgChart .error-text{fill:#ddd;stroke:#ddd;}#mermaidSvgChart .edge-thickness-normal{stroke-width:2px;}#mermaidSvgChart .edge-thickness-thick{stroke-width:3.5px;}#mermaidSvgChart .edge-pattern-solid{stroke-dasharray:0;}#mermaidSvgChart .edge-pattern-dashed{stroke-dasharray:3;}#mermaidSvgChart .edge-pattern-dotted{stroke-dasharray:2;}#mermaidSvgChart .marker{fill:lightgrey;stroke:lightgrey;}#mermaidSvgChart .marker.cross{stroke:lightgrey;}#mermaidSvgChart svg{font-family:"trebuchet ms",verdana,arial,sans-serif;font-size:16px;}#mermaidSvgChart .entityBox{fill:#1f2020;stroke:#81B1DB;}#mermaidSvgChart .attributeBoxOdd{fill:hsl(0, 0%, 32%);stroke:#81B1DB;}#mermaidSvgChart .attributeBoxEven{fill:hsl(0, 0%, 22%);stroke:#81B1DB;}#mermaidSvgChart .relationshipLabelBox{fill:hsl(20, 1.5873015873%, 12.3529411765%);opacity:0.7;background-color:hsl(20, 1.5873015873%, 12.3529411765%);}#mermaidSvgChart .relationshipLabelBox rect{opacity:0.5;}#mermaidSvgChart .relationshipLine{stroke:lightgrey;}#mermaidSvgChart .entityTitleText{text-anchor:middle;font-size:18px;fill:#ccc;}#mermaidSvgChart :root{--mermaid-font-family:"trebuchet ms",verdana,arial,sans-serif;}</style><g></g><defs><marker orient="auto" markerHeight="18" markerWidth="18" refY="9" refX="0" id="ONLY_ONE_START"><path d="M9,0 L9,18 M15,0 L15,18" fill="none" stroke="gray"></path></marker></defs><defs><marker orient="auto" markerHeight="18" markerWidth="18" refY="9" refX="18" id="ONLY_ONE_END"><path d="M3,0 L3,18 M9,0 L9,18" fill="none" stroke="gray"></path></marker></defs><defs><marker orient="auto" markerHeight="18" markerWidth="30" refY="9" refX="0" id="ZERO_OR_ONE_START"><circle r="6" cy="9" cx="21" fill="white" stroke="gray"></circle><path d="M9,0 L9,18" fill="none" stroke="gray"></path></marker></defs><defs><marker orient="auto" markerHeight="18" markerWidth="30" refY="9" refX="30" id="ZERO_OR_ONE_END"><circle r="6" cy="9" cx="9" fill="white" stroke="gray"></circle><path d="M21,0 L21,18" fill="none" stroke="gray"></path></marker></defs><defs><marker orient="auto" markerHeight="36" markerWidth="45" refY="18" refX="18" id="ONE_OR_MORE_START"><path d="M0,18 Q 18,0 36,18 Q 18,36 0,18 M42,9 L42,27" fill="none" stroke="gray"></path></marker></defs><defs><marker orient="auto" markerHeight="36" markerWidth="45" refY="18" refX="27" id="ONE_OR_MORE_END"><path d="M3,9 L3,27 M9,18 Q27,0 45,18 Q27,36 9,18" fill="none" stroke="gray"></path></marker></defs><defs><marker orient="auto" markerHeight="36" markerWidth="57" refY="18" refX="18" id="ZERO_OR_MORE_START"><circle r="6" cy="18" cx="48" fill="white" stroke="gray"></circle><path d="M0,18 Q18,0 36,18 Q18,36 0,18" fill="none" stroke="gray"></path></marker></defs><defs><marker orient="auto" markerHeight="36" markerWidth="57" refY="18" refX="39" id="ZERO_OR_MORE_END"><circle r="6" cy="18" cx="9" fill="white" stroke="gray"></circle><path d="M21,18 Q39,0 57,18 Q39,36 21,18" fill="none" stroke="gray"></path></marker></defs><path style="stroke: gray; fill: none;" marker-start="url(#ONLY_ONE_START)" marker-end="url(#ONE_OR_MORE_END)" d="M526.85,834L526.85,842.333C526.85,850.667,526.85,867.333,526.85,884C526.85,900.667,526.85,917.333,526.85,925.667L526.85,934" class="er relationshipLine"></path><path style="stroke: gray; fill: none;" marker-start="url(#ONLY_ONE_START)" marker-end="url(#ONE_OR_MORE_END)" d="M321.004,578L321.004,586.333C321.004,594.667,321.004,611.333,341.567,632.454C362.131,653.574,403.258,679.148,423.821,691.934L444.385,704.721" class="er relationshipLine"></path><path style="stroke: gray; fill: none;" marker-start="url(#ONLY_ONE_START)" marker-end="url(#ONE_OR_MORE_END)" d="M654.877,578L654.877,586.333C654.877,594.667,654.877,611.333,646.542,628C638.207,644.667,621.536,661.333,613.201,669.667L604.866,678" class="er relationshipLine"></path><path style="stroke: gray; fill: none;" marker-start="url(#ONLY_ONE_START)" marker-end="url(#ONE_OR_MORE_END)" d="M143.521,344L133.182,356C122.843,368,102.166,392,91.827,416C81.488,440,81.488,464,81.488,476L81.488,488" class="er relationshipLine"></path><path style="stroke: gray; fill: none;" marker-start="url(#ONLY_ONE_START)" marker-end="url(#ONE_OR_MORE_END)" d="M258.971,344L269.31,356C279.649,368,300.326,392,310.665,412.333C321.004,432.667,321.004,449.333,321.004,457.667L321.004,466" class="er relationshipLine"></path><path style="stroke: gray; fill: none;" marker-start="url(#ONLY_ONE_START)" marker-end="url(#ONE_OR_MORE_END)" d="M570.871,366L570.871,374.333C570.871,382.667,570.871,399.333,577.475,416C584.08,432.667,597.288,449.333,603.892,457.667L610.496,466" class="er relationshipLine"></path><path style="stroke: gray; fill: none;" marker-start="url(#ONLY_ONE_START)" marker-end="url(#ONE_OR_MORE_END)" d="M338.396,82.033L315.538,91.361C292.68,100.688,246.963,119.344,224.104,140.672C201.246,162,201.246,186,201.246,198L201.246,210" class="er relationshipLine"></path><path style="stroke: gray; fill: none;" marker-start="url(#ONLY_ONE_START)" marker-end="url(#ONE_OR_MORE_END)" d="M475.787,71.392L519.636,82.493C563.486,93.594,651.184,115.797,695.034,150.065C738.883,184.333,738.883,230.667,738.883,277C738.883,323.333,738.883,369.667,732.279,401.167C725.674,432.667,712.466,449.333,705.862,457.667L699.257,466" class="er relationshipLine"></path><g transform="translate(465.361328125,934 )" id="entity-dboCountries-2d9172c1-63db-5fa2-a157-19ca7ca794ba"><rect height="68" width="122.9765625" y="0" x="0" class="er entityBox"></rect><text style="dominant-baseline: middle; text-anchor: middle; font-size: 12px;" transform="translate(61.48828125,12)" y="0" x="0" id="text-entity-dboCountries-2d9172c1-63db-5fa2-a157-19ca7ca794ba" class="er entityLabel">dbo.Countries</text><rect height="22" width="62.15625" y="24" x="0" class="er attributeBoxOdd"></rect><text style="dominant-baseline: middle; font-size: 10.2px;" transform="translate(5,35)" y="0" x="0" id="text-entity-dboCountries-2d9172c1-63db-5fa2-a157-19ca7ca794ba-attr-1-type" class="er entityLabel">int</text><rect height="22" width="37.2109375" y="24" x="62.15625" class="er attributeBoxOdd"></rect><text style="dominant-baseline: middle; font-size: 10.2px;" transform="translate(67.15625,35)" y="0" x="0" id="text-entity-dboCountries-2d9172c1-63db-5fa2-a157-19ca7ca794ba-attr-1-name" class="er entityLabel">Id</text><rect height="22" width="23.609375" y="24" x="99.3671875" class="er attributeBoxOdd"></rect><text style="dominant-baseline: middle; font-size: 10.2px;" transform="translate(104.3671875,35)" y="0" x="0" id="text-entity-dboCountries-2d9172c1-63db-5fa2-a157-19ca7ca794ba-attr-1-comment" class="er entityLabel">PK</text><rect height="22" width="62.15625" y="46" x="0" class="er attributeBoxEven"></rect><text style="dominant-baseline: middle; font-size: 10.2px;" transform="translate(5,57)" y="0" x="0" id="text-entity-dboCountries-2d9172c1-63db-5fa2-a157-19ca7ca794ba-attr-2-type" class="er entityLabel">varchar(10)</text><rect height="22" width="37.2109375" y="46" x="62.15625" class="er attributeBoxEven"></rect><text style="dominant-baseline: middle; font-size: 10.2px;" transform="translate(67.15625,57)" y="0" x="0" id="text-entity-dboCountries-2d9172c1-63db-5fa2-a157-19ca7ca794ba-attr-2-name" class="er entityLabel">Name</text><rect height="22" width="23.609375" y="46" x="99.3671875" class="er attributeBoxEven"></rect><text style="dominant-baseline: middle; font-size: 10.2px;" transform="translate(104.3671875,57)" y="0" x="0" id="text-entity-dboCountries-2d9172c1-63db-5fa2-a157-19ca7ca794ba-attr-2-comment" class="er entityLabel"></text></g><g transform="translate(444.384765625,678 )" id="entity-dboAddresses-e0695fea-615a-57cd-89c4-0fbd7791cb6a"><rect height="156" width="164.9296875" y="0" x="0" class="er entityBox"></rect><text style="dominant-baseline: middle; text-anchor: middle; font-size: 12px;" transform="translate(82.46484375,12)" y="0" x="0" id="text-entity-dboAddresses-e0695fea-615a-57cd-89c4-0fbd7791cb6a" class="er entityLabel">dbo.Addresses</text><rect height="22" width="67.828125" y="24" x="0" class="er attributeBoxOdd"></rect><text style="dominant-baseline: middle; font-size: 10.2px;" transform="translate(5,35)" y="0" x="0" id="text-entity-dboAddresses-e0695fea-615a-57cd-89c4-0fbd7791cb6a-attr-1-type" class="er entityLabel">int</text><rect height="22" width="73.4921875" y="24" x="67.828125" class="er attributeBoxOdd"></rect><text style="dominant-baseline: middle; font-size: 10.2px;" transform="translate(72.828125,35)" y="0" x="0" id="text-entity-dboAddresses-e0695fea-615a-57cd-89c4-0fbd7791cb6a-attr-1-name" class="er entityLabel">Id</text><rect height="22" width="23.609375" y="24" x="141.3203125" class="er attributeBoxOdd"></rect><text style="dominant-baseline: middle; font-size: 10.2px;" transform="translate(146.3203125,35)" y="0" x="0" id="text-entity-dboAddresses-e0695fea-615a-57cd-89c4-0fbd7791cb6a-attr-1-comment" class="er entityLabel">PK</text><rect height="22" width="67.828125" y="46" x="0" class="er attributeBoxEven"></rect><text style="dominant-baseline: middle; font-size: 10.2px;" transform="translate(5,57)" y="0" x="0" id="text-entity-dboAddresses-e0695fea-615a-57cd-89c4-0fbd7791cb6a-attr-2-type" class="er entityLabel">nvarchar(20)</text><rect height="22" width="73.4921875" y="46" x="67.828125" class="er attributeBoxEven"></rect><text style="dominant-baseline: middle; font-size: 10.2px;" transform="translate(72.828125,57)" y="0" x="0" id="text-entity-dboAddresses-e0695fea-615a-57cd-89c4-0fbd7791cb6a-attr-2-name" class="er entityLabel">StreetName</text><rect height="22" width="23.609375" y="46" x="141.3203125" class="er attributeBoxEven"></rect><text style="dominant-baseline: middle; font-size: 10.2px;" transform="translate(146.3203125,57)" y="0" x="0" id="text-entity-dboAddresses-e0695fea-615a-57cd-89c4-0fbd7791cb6a-attr-2-comment" class="er entityLabel"></text><rect height="22" width="67.828125" y="68" x="0" class="er attributeBoxOdd"></rect><text style="dominant-baseline: middle; font-size: 10.2px;" transform="translate(5,79)" y="0" x="0" id="text-entity-dboAddresses-e0695fea-615a-57cd-89c4-0fbd7791cb6a-attr-3-type" class="er entityLabel">int</text><rect height="22" width="73.4921875" y="68" x="67.828125" class="er attributeBoxOdd"></rect><text style="dominant-baseline: middle; font-size: 10.2px;" transform="translate(72.828125,79)" y="0" x="0" id="text-entity-dboAddresses-e0695fea-615a-57cd-89c4-0fbd7791cb6a-attr-3-name" class="er entityLabel">StreetNumber</text><rect height="22" width="23.609375" y="68" x="141.3203125" class="er attributeBoxOdd"></rect><text style="dominant-baseline: middle; font-size: 10.2px;" transform="translate(146.3203125,79)" y="0" x="0" id="text-entity-dboAddresses-e0695fea-615a-57cd-89c4-0fbd7791cb6a-attr-3-comment" class="er entityLabel"></text><rect height="22" width="67.828125" y="90" x="0" class="er attributeBoxEven"></rect><text style="dominant-baseline: middle; font-size: 10.2px;" transform="translate(5,101)" y="0" x="0" id="text-entity-dboAddresses-e0695fea-615a-57cd-89c4-0fbd7791cb6a-attr-4-type" class="er entityLabel">int</text><rect height="22" width="73.4921875" y="90" x="67.828125" class="er attributeBoxEven"></rect><text style="dominant-baseline: middle; font-size: 10.2px;" transform="translate(72.828125,101)" y="0" x="0" id="text-entity-dboAddresses-e0695fea-615a-57cd-89c4-0fbd7791cb6a-attr-4-name" class="er entityLabel">PostCode</text><rect height="22" width="23.609375" y="90" x="141.3203125" class="er attributeBoxEven"></rect><text style="dominant-baseline: middle; font-size: 10.2px;" transform="translate(146.3203125,101)" y="0" x="0" id="text-entity-dboAddresses-e0695fea-615a-57cd-89c4-0fbd7791cb6a-attr-4-comment" class="er entityLabel"></text><rect height="22" width="67.828125" y="112" x="0" class="er attributeBoxOdd"></rect><text style="dominant-baseline: middle; font-size: 10.2px;" transform="translate(5,123)" y="0" x="0" id="text-entity-dboAddresses-e0695fea-615a-57cd-89c4-0fbd7791cb6a-attr-5-type" class="er entityLabel">varchar(25)</text><rect height="22" width="73.4921875" y="112" x="67.828125" class="er attributeBoxOdd"></rect><text style="dominant-baseline: middle; font-size: 10.2px;" transform="translate(72.828125,123)" y="0" x="0" id="text-entity-dboAddresses-e0695fea-615a-57cd-89c4-0fbd7791cb6a-attr-5-name" class="er entityLabel">City</text><rect height="22" width="23.609375" y="112" x="141.3203125" class="er attributeBoxOdd"></rect><text style="dominant-baseline: middle; font-size: 10.2px;" transform="translate(146.3203125,123)" y="0" x="0" id="text-entity-dboAddresses-e0695fea-615a-57cd-89c4-0fbd7791cb6a-attr-5-comment" class="er entityLabel"></text><rect height="22" width="67.828125" y="134" x="0" class="er attributeBoxEven"></rect><text style="dominant-baseline: middle; font-size: 10.2px;" transform="translate(5,145)" y="0" x="0" id="text-entity-dboAddresses-e0695fea-615a-57cd-89c4-0fbd7791cb6a-attr-6-type" class="er entityLabel">int</text><rect height="22" width="73.4921875" y="134" x="67.828125" class="er attributeBoxEven"></rect><text style="dominant-baseline: middle; font-size: 10.2px;" transform="translate(72.828125,145)" y="0" x="0" id="text-entity-dboAddresses-e0695fea-615a-57cd-89c4-0fbd7791cb6a-attr-6-name" class="er entityLabel">CountryId</text><rect height="22" width="23.609375" y="134" x="141.3203125" class="er attributeBoxEven"></rect><text style="dominant-baseline: middle; font-size: 10.2px;" transform="translate(146.3203125,145)" y="0" x="0" id="text-entity-dboAddresses-e0695fea-615a-57cd-89c4-0fbd7791cb6a-attr-6-comment" class="er entityLabel">FK</text></g><g transform="translate(242.9765625,466 )" id="entity-dboVendors-458b8cee-d29f-54ed-aec6-538a7cc27891"><rect height="112" width="156.0546875" y="0" x="0" class="er entityBox"></rect><text style="dominant-baseline: middle; text-anchor: middle; font-size: 12px;" transform="translate(78.02734375,12)" y="0" x="0" id="text-entity-dboVendors-458b8cee-d29f-54ed-aec6-538a7cc27891" class="er entityLabel">dbo.Vendors</text><rect height="22" width="67.828125" y="24" x="0" class="er attributeBoxOdd"></rect><text style="dominant-baseline: middle; font-size: 10.2px;" transform="translate(5,35)" y="0" x="0" id="text-entity-dboVendors-458b8cee-d29f-54ed-aec6-538a7cc27891-attr-1-type" class="er entityLabel">int</text><rect height="22" width="64.6171875" y="24" x="67.828125" class="er attributeBoxOdd"></rect><text style="dominant-baseline: middle; font-size: 10.2px;" transform="translate(72.828125,35)" y="0" x="0" id="text-entity-dboVendors-458b8cee-d29f-54ed-aec6-538a7cc27891-attr-1-name" class="er entityLabel">Id</text><rect height="22" width="23.609375" y="24" x="132.4453125" class="er attributeBoxOdd"></rect><text style="dominant-baseline: middle; font-size: 10.2px;" transform="translate(137.4453125,35)" y="0" x="0" id="text-entity-dboVendors-458b8cee-d29f-54ed-aec6-538a7cc27891-attr-1-comment" class="er entityLabel">PK</text><rect height="22" width="67.828125" y="46" x="0" class="er attributeBoxEven"></rect><text style="dominant-baseline: middle; font-size: 10.2px;" transform="translate(5,57)" y="0" x="0" id="text-entity-dboVendors-458b8cee-d29f-54ed-aec6-538a7cc27891-attr-2-type" class="er entityLabel">nvarchar(25)</text><rect height="22" width="64.6171875" y="46" x="67.828125" class="er attributeBoxEven"></rect><text style="dominant-baseline: middle; font-size: 10.2px;" transform="translate(72.828125,57)" y="0" x="0" id="text-entity-dboVendors-458b8cee-d29f-54ed-aec6-538a7cc27891-attr-2-name" class="er entityLabel">Name</text><rect height="22" width="23.609375" y="46" x="132.4453125" class="er attributeBoxEven"></rect><text style="dominant-baseline: middle; font-size: 10.2px;" transform="translate(137.4453125,57)" y="0" x="0" id="text-entity-dboVendors-458b8cee-d29f-54ed-aec6-538a7cc27891-attr-2-comment" class="er entityLabel"></text><rect height="22" width="67.828125" y="68" x="0" class="er attributeBoxOdd"></rect><text style="dominant-baseline: middle; font-size: 10.2px;" transform="translate(5,79)" y="0" x="0" id="text-entity-dboVendors-458b8cee-d29f-54ed-aec6-538a7cc27891-attr-3-type" class="er entityLabel">nvarchar(15)</text><rect height="22" width="64.6171875" y="68" x="67.828125" class="er attributeBoxOdd"></rect><text style="dominant-baseline: middle; font-size: 10.2px;" transform="translate(72.828125,79)" y="0" x="0" id="text-entity-dboVendors-458b8cee-d29f-54ed-aec6-538a7cc27891-attr-3-name" class="er entityLabel">NumberVAT</text><rect height="22" width="23.609375" y="68" x="132.4453125" class="er attributeBoxOdd"></rect><text style="dominant-baseline: middle; font-size: 10.2px;" transform="translate(137.4453125,79)" y="0" x="0" id="text-entity-dboVendors-458b8cee-d29f-54ed-aec6-538a7cc27891-attr-3-comment" class="er entityLabel"></text><rect height="22" width="67.828125" y="90" x="0" class="er attributeBoxEven"></rect><text style="dominant-baseline: middle; font-size: 10.2px;" transform="translate(5,101)" y="0" x="0" id="text-entity-dboVendors-458b8cee-d29f-54ed-aec6-538a7cc27891-attr-4-type" class="er entityLabel">int</text><rect height="22" width="64.6171875" y="90" x="67.828125" class="er attributeBoxEven"></rect><text style="dominant-baseline: middle; font-size: 10.2px;" transform="translate(72.828125,101)" y="0" x="0" id="text-entity-dboVendors-458b8cee-d29f-54ed-aec6-538a7cc27891-attr-4-name" class="er entityLabel">AddressId</text><rect height="22" width="23.609375" y="90" x="132.4453125" class="er attributeBoxEven"></rect><text style="dominant-baseline: middle; font-size: 10.2px;" transform="translate(137.4453125,101)" y="0" x="0" id="text-entity-dboVendors-458b8cee-d29f-54ed-aec6-538a7cc27891-attr-4-comment" class="er entityLabel">FK</text></g><g transform="translate(576.849609375,466 )" id="entity-dboClients-6a9920dd-45d1-5e45-9062-a71a0a58fa0e"><rect height="112" width="156.0546875" y="0" x="0" class="er entityBox"></rect><text style="dominant-baseline: middle; text-anchor: middle; font-size: 12px;" transform="translate(78.02734375,12)" y="0" x="0" id="text-entity-dboClients-6a9920dd-45d1-5e45-9062-a71a0a58fa0e" class="er entityLabel">dbo.Clients</text><rect height="22" width="67.828125" y="24" x="0" class="er attributeBoxOdd"></rect><text style="dominant-baseline: middle; font-size: 10.2px;" transform="translate(5,35)" y="0" x="0" id="text-entity-dboClients-6a9920dd-45d1-5e45-9062-a71a0a58fa0e-attr-1-type" class="er entityLabel">int</text><rect height="22" width="64.6171875" y="24" x="67.828125" class="er attributeBoxOdd"></rect><text style="dominant-baseline: middle; font-size: 10.2px;" transform="translate(72.828125,35)" y="0" x="0" id="text-entity-dboClients-6a9920dd-45d1-5e45-9062-a71a0a58fa0e-attr-1-name" class="er entityLabel">Id</text><rect height="22" width="23.609375" y="24" x="132.4453125" class="er attributeBoxOdd"></rect><text style="dominant-baseline: middle; font-size: 10.2px;" transform="translate(137.4453125,35)" y="0" x="0" id="text-entity-dboClients-6a9920dd-45d1-5e45-9062-a71a0a58fa0e-attr-1-comment" class="er entityLabel">PK</text><rect height="22" width="67.828125" y="46" x="0" class="er attributeBoxEven"></rect><text style="dominant-baseline: middle; font-size: 10.2px;" transform="translate(5,57)" y="0" x="0" id="text-entity-dboClients-6a9920dd-45d1-5e45-9062-a71a0a58fa0e-attr-2-type" class="er entityLabel">nvarchar(25)</text><rect height="22" width="64.6171875" y="46" x="67.828125" class="er attributeBoxEven"></rect><text style="dominant-baseline: middle; font-size: 10.2px;" transform="translate(72.828125,57)" y="0" x="0" id="text-entity-dboClients-6a9920dd-45d1-5e45-9062-a71a0a58fa0e-attr-2-name" class="er entityLabel">Name</text><rect height="22" width="23.609375" y="46" x="132.4453125" class="er attributeBoxEven"></rect><text style="dominant-baseline: middle; font-size: 10.2px;" transform="translate(137.4453125,57)" y="0" x="0" id="text-entity-dboClients-6a9920dd-45d1-5e45-9062-a71a0a58fa0e-attr-2-comment" class="er entityLabel"></text><rect height="22" width="67.828125" y="68" x="0" class="er attributeBoxOdd"></rect><text style="dominant-baseline: middle; font-size: 10.2px;" transform="translate(5,79)" y="0" x="0" id="text-entity-dboClients-6a9920dd-45d1-5e45-9062-a71a0a58fa0e-attr-3-type" class="er entityLabel">nvarchar(15)</text><rect height="22" width="64.6171875" y="68" x="67.828125" class="er attributeBoxOdd"></rect><text style="dominant-baseline: middle; font-size: 10.2px;" transform="translate(72.828125,79)" y="0" x="0" id="text-entity-dboClients-6a9920dd-45d1-5e45-9062-a71a0a58fa0e-attr-3-name" class="er entityLabel">NumberVAT</text><rect height="22" width="23.609375" y="68" x="132.4453125" class="er attributeBoxOdd"></rect><text style="dominant-baseline: middle; font-size: 10.2px;" transform="translate(137.4453125,79)" y="0" x="0" id="text-entity-dboClients-6a9920dd-45d1-5e45-9062-a71a0a58fa0e-attr-3-comment" class="er entityLabel"></text><rect height="22" width="67.828125" y="90" x="0" class="er attributeBoxEven"></rect><text style="dominant-baseline: middle; font-size: 10.2px;" transform="translate(5,101)" y="0" x="0" id="text-entity-dboClients-6a9920dd-45d1-5e45-9062-a71a0a58fa0e-attr-4-type" class="er entityLabel">int</text><rect height="22" width="64.6171875" y="90" x="67.828125" class="er attributeBoxEven"></rect><text style="dominant-baseline: middle; font-size: 10.2px;" transform="translate(72.828125,101)" y="0" x="0" id="text-entity-dboClients-6a9920dd-45d1-5e45-9062-a71a0a58fa0e-attr-4-name" class="er entityLabel">AddressId</text><rect height="22" width="23.609375" y="90" x="132.4453125" class="er attributeBoxEven"></rect><text style="dominant-baseline: middle; font-size: 10.2px;" transform="translate(137.4453125,101)" y="0" x="0" id="text-entity-dboClients-6a9920dd-45d1-5e45-9062-a71a0a58fa0e-attr-4-comment" class="er entityLabel">FK</text></g><g transform="translate(20,488 )" id="entity-dboCategories-6554e102-4caa-52c9-9053-1e54316a2fb6"><rect height="68" width="122.9765625" y="0" x="0" class="er entityBox"></rect><text style="dominant-baseline: middle; text-anchor: middle; font-size: 12px;" transform="translate(61.48828125,12)" y="0" x="0" id="text-entity-dboCategories-6554e102-4caa-52c9-9053-1e54316a2fb6" class="er entityLabel">dbo.Categories</text><rect height="22" width="62.15625" y="24" x="0" class="er attributeBoxOdd"></rect><text style="dominant-baseline: middle; font-size: 10.2px;" transform="translate(5,35)" y="0" x="0" id="text-entity-dboCategories-6554e102-4caa-52c9-9053-1e54316a2fb6-attr-1-type" class="er entityLabel">int</text><rect height="22" width="37.2109375" y="24" x="62.15625" class="er attributeBoxOdd"></rect><text style="dominant-baseline: middle; font-size: 10.2px;" transform="translate(67.15625,35)" y="0" x="0" id="text-entity-dboCategories-6554e102-4caa-52c9-9053-1e54316a2fb6-attr-1-name" class="er entityLabel">Id</text><rect height="22" width="23.609375" y="24" x="99.3671875" class="er attributeBoxOdd"></rect><text style="dominant-baseline: middle; font-size: 10.2px;" transform="translate(104.3671875,35)" y="0" x="0" id="text-entity-dboCategories-6554e102-4caa-52c9-9053-1e54316a2fb6-attr-1-comment" class="er entityLabel">PK</text><rect height="22" width="62.15625" y="46" x="0" class="er attributeBoxEven"></rect><text style="dominant-baseline: middle; font-size: 10.2px;" transform="translate(5,57)" y="0" x="0" id="text-entity-dboCategories-6554e102-4caa-52c9-9053-1e54316a2fb6-attr-2-type" class="er entityLabel">varchar(10)</text><rect height="22" width="37.2109375" y="46" x="62.15625" class="er attributeBoxEven"></rect><text style="dominant-baseline: middle; font-size: 10.2px;" transform="translate(67.15625,57)" y="0" x="0" id="text-entity-dboCategories-6554e102-4caa-52c9-9053-1e54316a2fb6-attr-2-name" class="er entityLabel">Name</text><rect height="22" width="23.609375" y="46" x="99.3671875" class="er attributeBoxEven"></rect><text style="dominant-baseline: middle; font-size: 10.2px;" transform="translate(104.3671875,57)" y="0" x="0" id="text-entity-dboCategories-6554e102-4caa-52c9-9053-1e54316a2fb6-attr-2-comment" class="er entityLabel"></text></g><g transform="translate(125.578125,210 )" id="entity-dboProducts-2d9b623b-6942-5127-93c2-59d00a6ca224"><rect height="134" width="151.3359375" y="0" x="0" class="er entityBox"></rect><text style="dominant-baseline: middle; text-anchor: middle; font-size: 12px;" transform="translate(75.66796875,12)" y="0" x="0" id="text-entity-dboProducts-2d9b623b-6942-5127-93c2-59d00a6ca224" class="er entityLabel">dbo.Products</text><rect height="22" width="67.828125" y="24" x="0" class="er attributeBoxOdd"></rect><text style="dominant-baseline: middle; font-size: 10.2px;" transform="translate(5,35)" y="0" x="0" id="text-entity-dboProducts-2d9b623b-6942-5127-93c2-59d00a6ca224-attr-1-type" class="er entityLabel">int</text><rect height="22" width="59.8984375" y="24" x="67.828125" class="er attributeBoxOdd"></rect><text style="dominant-baseline: middle; font-size: 10.2px;" transform="translate(72.828125,35)" y="0" x="0" id="text-entity-dboProducts-2d9b623b-6942-5127-93c2-59d00a6ca224-attr-1-name" class="er entityLabel">Id</text><rect height="22" width="23.609375" y="24" x="127.7265625" class="er attributeBoxOdd"></rect><text style="dominant-baseline: middle; font-size: 10.2px;" transform="translate(132.7265625,35)" y="0" x="0" id="text-entity-dboProducts-2d9b623b-6942-5127-93c2-59d00a6ca224-attr-1-comment" class="er entityLabel">PK</text><rect height="22" width="67.828125" y="46" x="0" class="er attributeBoxEven"></rect><text style="dominant-baseline: middle; font-size: 10.2px;" transform="translate(5,57)" y="0" x="0" id="text-entity-dboProducts-2d9b623b-6942-5127-93c2-59d00a6ca224-attr-2-type" class="er entityLabel">nvarchar(35)</text><rect height="22" width="59.8984375" y="46" x="67.828125" class="er attributeBoxEven"></rect><text style="dominant-baseline: middle; font-size: 10.2px;" transform="translate(72.828125,57)" y="0" x="0" id="text-entity-dboProducts-2d9b623b-6942-5127-93c2-59d00a6ca224-attr-2-name" class="er entityLabel">Name</text><rect height="22" width="23.609375" y="46" x="127.7265625" class="er attributeBoxEven"></rect><text style="dominant-baseline: middle; font-size: 10.2px;" transform="translate(132.7265625,57)" y="0" x="0" id="text-entity-dboProducts-2d9b623b-6942-5127-93c2-59d00a6ca224-attr-2-comment" class="er entityLabel"></text><rect height="22" width="67.828125" y="68" x="0" class="er attributeBoxOdd"></rect><text style="dominant-baseline: middle; font-size: 10.2px;" transform="translate(5,79)" y="0" x="0" id="text-entity-dboProducts-2d9b623b-6942-5127-93c2-59d00a6ca224-attr-3-type" class="er entityLabel">decimal</text><rect height="22" width="59.8984375" y="68" x="67.828125" class="er attributeBoxOdd"></rect><text style="dominant-baseline: middle; font-size: 10.2px;" transform="translate(72.828125,79)" y="0" x="0" id="text-entity-dboProducts-2d9b623b-6942-5127-93c2-59d00a6ca224-attr-3-name" class="er entityLabel">Price</text><rect height="22" width="23.609375" y="68" x="127.7265625" class="er attributeBoxOdd"></rect><text style="dominant-baseline: middle; font-size: 10.2px;" transform="translate(132.7265625,79)" y="0" x="0" id="text-entity-dboProducts-2d9b623b-6942-5127-93c2-59d00a6ca224-attr-3-comment" class="er entityLabel"></text><rect height="22" width="67.828125" y="90" x="0" class="er attributeBoxEven"></rect><text style="dominant-baseline: middle; font-size: 10.2px;" transform="translate(5,101)" y="0" x="0" id="text-entity-dboProducts-2d9b623b-6942-5127-93c2-59d00a6ca224-attr-4-type" class="er entityLabel">int</text><rect height="22" width="59.8984375" y="90" x="67.828125" class="er attributeBoxEven"></rect><text style="dominant-baseline: middle; font-size: 10.2px;" transform="translate(72.828125,101)" y="0" x="0" id="text-entity-dboProducts-2d9b623b-6942-5127-93c2-59d00a6ca224-attr-4-name" class="er entityLabel">CategoryId</text><rect height="22" width="23.609375" y="90" x="127.7265625" class="er attributeBoxEven"></rect><text style="dominant-baseline: middle; font-size: 10.2px;" transform="translate(132.7265625,101)" y="0" x="0" id="text-entity-dboProducts-2d9b623b-6942-5127-93c2-59d00a6ca224-attr-4-comment" class="er entityLabel">FK</text><rect height="22" width="67.828125" y="112" x="0" class="er attributeBoxOdd"></rect><text style="dominant-baseline: middle; font-size: 10.2px;" transform="translate(5,123)" y="0" x="0" id="text-entity-dboProducts-2d9b623b-6942-5127-93c2-59d00a6ca224-attr-5-type" class="er entityLabel">int</text><rect height="22" width="59.8984375" y="112" x="67.828125" class="er attributeBoxOdd"></rect><text style="dominant-baseline: middle; font-size: 10.2px;" transform="translate(72.828125,123)" y="0" x="0" id="text-entity-dboProducts-2d9b623b-6942-5127-93c2-59d00a6ca224-attr-5-name" class="er entityLabel">VendorId</text><rect height="22" width="23.609375" y="112" x="127.7265625" class="er attributeBoxOdd"></rect><text style="dominant-baseline: middle; font-size: 10.2px;" transform="translate(132.7265625,123)" y="0" x="0" id="text-entity-dboProducts-2d9b623b-6942-5127-93c2-59d00a6ca224-attr-5-comment" class="er entityLabel">FK</text></g><g transform="translate(502.859375,188 )" id="entity-dboInvoices-19ce4210-b973-5a3f-9ad4-6af59c4d3923"><rect height="178" width="136.0234375" y="0" x="0" class="er entityBox"></rect><text style="dominant-baseline: middle; text-anchor: middle; font-size: 12px;" transform="translate(68.01171875,12)" y="0" x="0" id="text-entity-dboInvoices-19ce4210-b973-5a3f-9ad4-6af59c4d3923" class="er entityLabel">dbo.Invoices</text><rect height="22" width="56.484375" y="24" x="0" class="er attributeBoxOdd"></rect><text style="dominant-baseline: middle; font-size: 10.2px;" transform="translate(5,35)" y="0" x="0" id="text-entity-dboInvoices-19ce4210-b973-5a3f-9ad4-6af59c4d3923-attr-1-type" class="er entityLabel">int</text><rect height="22" width="55.9296875" y="24" x="56.484375" class="er attributeBoxOdd"></rect><text style="dominant-baseline: middle; font-size: 10.2px;" transform="translate(61.484375,35)" y="0" x="0" id="text-entity-dboInvoices-19ce4210-b973-5a3f-9ad4-6af59c4d3923-attr-1-name" class="er entityLabel">Id</text><rect height="22" width="23.609375" y="24" x="112.4140625" class="er attributeBoxOdd"></rect><text style="dominant-baseline: middle; font-size: 10.2px;" transform="translate(117.4140625,35)" y="0" x="0" id="text-entity-dboInvoices-19ce4210-b973-5a3f-9ad4-6af59c4d3923-attr-1-comment" class="er entityLabel">PK</text><rect height="22" width="56.484375" y="46" x="0" class="er attributeBoxEven"></rect><text style="dominant-baseline: middle; font-size: 10.2px;" transform="translate(5,57)" y="0" x="0" id="text-entity-dboInvoices-19ce4210-b973-5a3f-9ad4-6af59c4d3923-attr-2-type" class="er entityLabel">int</text><rect height="22" width="55.9296875" y="46" x="56.484375" class="er attributeBoxEven"></rect><text style="dominant-baseline: middle; font-size: 10.2px;" transform="translate(61.484375,57)" y="0" x="0" id="text-entity-dboInvoices-19ce4210-b973-5a3f-9ad4-6af59c4d3923-attr-2-name" class="er entityLabel">Number</text><rect height="22" width="23.609375" y="46" x="112.4140625" class="er attributeBoxEven"></rect><text style="dominant-baseline: middle; font-size: 10.2px;" transform="translate(117.4140625,57)" y="0" x="0" id="text-entity-dboInvoices-19ce4210-b973-5a3f-9ad4-6af59c4d3923-attr-2-comment" class="er entityLabel"></text><rect height="22" width="56.484375" y="68" x="0" class="er attributeBoxOdd"></rect><text style="dominant-baseline: middle; font-size: 10.2px;" transform="translate(5,79)" y="0" x="0" id="text-entity-dboInvoices-19ce4210-b973-5a3f-9ad4-6af59c4d3923-attr-3-type" class="er entityLabel">datetime2</text><rect height="22" width="55.9296875" y="68" x="56.484375" class="er attributeBoxOdd"></rect><text style="dominant-baseline: middle; font-size: 10.2px;" transform="translate(61.484375,79)" y="0" x="0" id="text-entity-dboInvoices-19ce4210-b973-5a3f-9ad4-6af59c4d3923-attr-3-name" class="er entityLabel">IssueDate</text><rect height="22" width="23.609375" y="68" x="112.4140625" class="er attributeBoxOdd"></rect><text style="dominant-baseline: middle; font-size: 10.2px;" transform="translate(117.4140625,79)" y="0" x="0" id="text-entity-dboInvoices-19ce4210-b973-5a3f-9ad4-6af59c4d3923-attr-3-comment" class="er entityLabel"></text><rect height="22" width="56.484375" y="90" x="0" class="er attributeBoxEven"></rect><text style="dominant-baseline: middle; font-size: 10.2px;" transform="translate(5,101)" y="0" x="0" id="text-entity-dboInvoices-19ce4210-b973-5a3f-9ad4-6af59c4d3923-attr-4-type" class="er entityLabel">datetime2</text><rect height="22" width="55.9296875" y="90" x="56.484375" class="er attributeBoxEven"></rect><text style="dominant-baseline: middle; font-size: 10.2px;" transform="translate(61.484375,101)" y="0" x="0" id="text-entity-dboInvoices-19ce4210-b973-5a3f-9ad4-6af59c4d3923-attr-4-name" class="er entityLabel">DueDate</text><rect height="22" width="23.609375" y="90" x="112.4140625" class="er attributeBoxEven"></rect><text style="dominant-baseline: middle; font-size: 10.2px;" transform="translate(117.4140625,101)" y="0" x="0" id="text-entity-dboInvoices-19ce4210-b973-5a3f-9ad4-6af59c4d3923-attr-4-comment" class="er entityLabel"></text><rect height="22" width="56.484375" y="112" x="0" class="er attributeBoxOdd"></rect><text style="dominant-baseline: middle; font-size: 10.2px;" transform="translate(5,123)" y="0" x="0" id="text-entity-dboInvoices-19ce4210-b973-5a3f-9ad4-6af59c4d3923-attr-5-type" class="er entityLabel">decimal</text><rect height="22" width="55.9296875" y="112" x="56.484375" class="er attributeBoxOdd"></rect><text style="dominant-baseline: middle; font-size: 10.2px;" transform="translate(61.484375,123)" y="0" x="0" id="text-entity-dboInvoices-19ce4210-b973-5a3f-9ad4-6af59c4d3923-attr-5-name" class="er entityLabel">Amount</text><rect height="22" width="23.609375" y="112" x="112.4140625" class="er attributeBoxOdd"></rect><text style="dominant-baseline: middle; font-size: 10.2px;" transform="translate(117.4140625,123)" y="0" x="0" id="text-entity-dboInvoices-19ce4210-b973-5a3f-9ad4-6af59c4d3923-attr-5-comment" class="er entityLabel"></text><rect height="22" width="56.484375" y="134" x="0" class="er attributeBoxEven"></rect><text style="dominant-baseline: middle; font-size: 10.2px;" transform="translate(5,145)" y="0" x="0" id="text-entity-dboInvoices-19ce4210-b973-5a3f-9ad4-6af59c4d3923-attr-6-type" class="er entityLabel">varchar(5)</text><rect height="22" width="55.9296875" y="134" x="56.484375" class="er attributeBoxEven"></rect><text style="dominant-baseline: middle; font-size: 10.2px;" transform="translate(61.484375,145)" y="0" x="0" id="text-entity-dboInvoices-19ce4210-b973-5a3f-9ad4-6af59c4d3923-attr-6-name" class="er entityLabel">Currency</text><rect height="22" width="23.609375" y="134" x="112.4140625" class="er attributeBoxEven"></rect><text style="dominant-baseline: middle; font-size: 10.2px;" transform="translate(117.4140625,145)" y="0" x="0" id="text-entity-dboInvoices-19ce4210-b973-5a3f-9ad4-6af59c4d3923-attr-6-comment" class="er entityLabel"></text><rect height="22" width="56.484375" y="156" x="0" class="er attributeBoxOdd"></rect><text style="dominant-baseline: middle; font-size: 10.2px;" transform="translate(5,167)" y="0" x="0" id="text-entity-dboInvoices-19ce4210-b973-5a3f-9ad4-6af59c4d3923-attr-7-type" class="er entityLabel">int</text><rect height="22" width="55.9296875" y="156" x="56.484375" class="er attributeBoxOdd"></rect><text style="dominant-baseline: middle; font-size: 10.2px;" transform="translate(61.484375,167)" y="0" x="0" id="text-entity-dboInvoices-19ce4210-b973-5a3f-9ad4-6af59c4d3923-attr-7-name" class="er entityLabel">ClientId</text><rect height="22" width="23.609375" y="156" x="112.4140625" class="er attributeBoxOdd"></rect><text style="dominant-baseline: middle; font-size: 10.2px;" transform="translate(117.4140625,167)" y="0" x="0" id="text-entity-dboInvoices-19ce4210-b973-5a3f-9ad4-6af59c4d3923-attr-7-comment" class="er entityLabel">FK</text></g><g transform="translate(338.396484375,20 )" id="entity-dboProductsClients-b9dea461-78a5-5955-a5ed-5b79e1a5829d"><rect height="68" width="137.390625" y="0" x="0" class="er entityBox"></rect><text style="dominant-baseline: middle; text-anchor: middle; font-size: 12px;" transform="translate(68.6953125,12)" y="0" x="0" id="text-entity-dboProductsClients-b9dea461-78a5-5955-a5ed-5b79e1a5829d" class="er entityLabel">dbo.ProductsClients</text><rect height="22" width="27.653645833333332" y="24" x="0" class="er attributeBoxOdd"></rect><text style="dominant-baseline: middle; font-size: 10.2px;" transform="translate(5,35)" y="0" x="0" id="text-entity-dboProductsClients-b9dea461-78a5-5955-a5ed-5b79e1a5829d-attr-1-type" class="er entityLabel">int</text><rect height="22" width="60.544270833333336" y="24" x="27.653645833333332" class="er attributeBoxOdd"></rect><text style="dominant-baseline: middle; font-size: 10.2px;" transform="translate(32.65364583333333,35)" y="0" x="0" id="text-entity-dboProductsClients-b9dea461-78a5-5955-a5ed-5b79e1a5829d-attr-1-name" class="er entityLabel">ProductId</text><rect height="22" width="49.192708333333336" y="24" x="88.19791666666667" class="er attributeBoxOdd"></rect><text style="dominant-baseline: middle; font-size: 10.2px;" transform="translate(93.19791666666667,35)" y="0" x="0" id="text-entity-dboProductsClients-b9dea461-78a5-5955-a5ed-5b79e1a5829d-attr-1-comment" class="er entityLabel">PK, FK</text><rect height="22" width="27.653645833333332" y="46" x="0" class="er attributeBoxEven"></rect><text style="dominant-baseline: middle; font-size: 10.2px;" transform="translate(5,57)" y="0" x="0" id="text-entity-dboProductsClients-b9dea461-78a5-5955-a5ed-5b79e1a5829d-attr-2-type" class="er entityLabel">int</text><rect height="22" width="60.544270833333336" y="46" x="27.653645833333332" class="er attributeBoxEven"></rect><text style="dominant-baseline: middle; font-size: 10.2px;" transform="translate(32.65364583333333,57)" y="0" x="0" id="text-entity-dboProductsClients-b9dea461-78a5-5955-a5ed-5b79e1a5829d-attr-2-name" class="er entityLabel">ClientId</text><rect height="22" width="49.192708333333336" y="46" x="88.19791666666667" class="er attributeBoxEven"></rect><text style="dominant-baseline: middle; font-size: 10.2px;" transform="translate(93.19791666666667,57)" y="0" x="0" id="text-entity-dboProductsClients-b9dea461-78a5-5955-a5ed-5b79e1a5829d-attr-2-comment" class="er entityLabel">PK, FK</text></g><rect height="14" width="10.0078125" y="877" x="521.8460693359375" class="er relationshipLabelBox"></rect><text style="text-anchor: middle; dominant-baseline: middle; font-size: 12px;" y="884" x="526.8499755859375" id="rel1" class="er relationshipLabel">Id</text><rect height="14" width="10.0078125" y="646.709716796875" x="361.51116943359375" class="er relationshipLabelBox"></rect><text style="text-anchor: middle; dominant-baseline: middle; font-size: 12px;" y="653.709716796875" x="366.51507568359375" id="rel2" class="er relationshipLabel">Id</text><rect height="14" width="10.0078125" y="627.1665649414062" x="638.095458984375" class="er relationshipLabelBox"></rect><text style="text-anchor: middle; dominant-baseline: middle; font-size: 12px;" y="634.1665649414062" x="643.099365234375" id="rel3" class="er relationshipLabel">Id</text><rect height="14" width="10.0078125" y="401.92376708984375" x="90.15763092041016" class="er relationshipLabelBox"></rect><text style="text-anchor: middle; dominant-baseline: middle; font-size: 12px;" y="408.92376708984375" x="95.16153717041016" id="rel4" class="er relationshipLabel">Id</text><rect height="14" width="10.0078125" y="392.1493225097656" x="297.9492492675781" class="er relationshipLabelBox"></rect><text style="text-anchor: middle; dominant-baseline: middle; font-size: 12px;" y="399.1493225097656" x="302.9531555175781" id="rel5" class="er relationshipLabel">Id</text><rect height="14" width="10.0078125" y="413.297119140625" x="574.314453125" class="er relationshipLabelBox"></rect><text style="text-anchor: middle; dominant-baseline: middle; font-size: 12px;" y="420.297119140625" x="579.318359375" id="rel6" class="er relationshipLabel">Id</text><rect height="14" width="10.0078125" y="117.86259460449219" x="240.49073791503906" class="er relationshipLabelBox"></rect><text style="text-anchor: middle; dominant-baseline: middle; font-size: 12px;" y="124.86259460449219" x="245.49464416503906" id="rel7" class="er relationshipLabel">Id</text><rect height="14" width="10.0078125" y="183.35369873046875" x="722.01123046875" class="er relationshipLabelBox"></rect><text style="text-anchor: middle; dominant-baseline: middle; font-size: 12px;" y="190.35369873046875" x="727.01513671875" id="rel8" class="er relationshipLabel">Id</text></svg>