<svg aria-roledescription="er" role="graphics-document document" viewBox="0 0 761.31640625 854" style="max-width: 761.31640625px;" xmlns="http://www.w3.org/2000/svg" width="100%" id="mermaidSvgChart"><style>#mermaidSvgChart{font-family:"trebuchet ms",verdana,arial,sans-serif;font-size:16px;fill:#ccc;}#mermaidSvgChart .error-icon{fill:#a44141;}#mermaidSvgChart .error-text{fill:#ddd;stroke:#ddd;}#mermaidSvgChart .edge-thickness-normal{stroke-width:2px;}#mermaidSvgChart .edge-thickness-thick{stroke-width:3.5px;}#mermaidSvgChart .edge-pattern-solid{stroke-dasharray:0;}#mermaidSvgChart .edge-pattern-dashed{stroke-dasharray:3;}#mermaidSvgChart .edge-pattern-dotted{stroke-dasharray:2;}#mermaidSvgChart .marker{fill:lightgrey;stroke:lightgrey;}#mermaidSvgChart .marker.cross{stroke:lightgrey;}#mermaidSvgChart svg{font-family:"trebuchet ms",verdana,arial,sans-serif;font-size:16px;}#mermaidSvgChart .entityBox{fill:#1f2020;stroke:#81B1DB;}#mermaidSvgChart .attributeBoxOdd{fill:hsl(0, 0%, 32%);stroke:#81B1DB;}#mermaidSvgChart .attributeBoxEven{fill:hsl(0, 0%, 22%);stroke:#81B1DB;}#mermaidSvgChart .relationshipLabelBox{fill:hsl(20, 1.5873015873%, 12.3529411765%);opacity:0.7;background-color:hsl(20, 1.5873015873%, 12.3529411765%);}#mermaidSvgChart .relationshipLabelBox rect{opacity:0.5;}#mermaidSvgChart .relationshipLine{stroke:lightgrey;}#mermaidSvgChart .entityTitleText{text-anchor:middle;font-size:18px;fill:#ccc;}#mermaidSvgChart :root{--mermaid-font-family:"trebuchet ms",verdana,arial,sans-serif;}</style><g></g><defs><marker orient="auto" markerHeight="18" markerWidth="18" refY="9" refX="0" id="ONLY_ONE_START"><path d="M9,0 L9,18 M15,0 L15,18" fill="none" stroke="gray"></path></marker></defs><defs><marker orient="auto" markerHeight="18" markerWidth="18" refY="9" refX="18" id="ONLY_ONE_END"><path d="M3,0 L3,18 M9,0 L9,18" fill="none" stroke="gray"></path></marker></defs><defs><marker orient="auto" markerHeight="18" markerWidth="30" refY="9" refX="0" id="ZERO_OR_ONE_START"><circle r="6" cy="9" cx="21" fill="white" stroke="gray"></circle><path d="M9,0 L9,18" fill="none" stroke="gray"></path></marker></defs><defs><marker orient="auto" markerHeight="18" markerWidth="30" refY="9" refX="30" id="ZERO_OR_ONE_END"><circle r="6" cy="9" cx="9" fill="white" stroke="gray"></circle><path d="M21,0 L21,18" fill="none" stroke="gray"></path></marker></defs><defs><marker orient="auto" markerHeight="36" markerWidth="45" refY="18" refX="18" id="ONE_OR_MORE_START"><path d="M0,18 Q 18,0 36,18 Q 18,36 0,18 M42,9 L42,27" fill="none" stroke="gray"></path></marker></defs><defs><marker orient="auto" markerHeight="36" markerWidth="45" refY="18" refX="27" id="ONE_OR_MORE_END"><path d="M3,9 L3,27 M9,18 Q27,0 45,18 Q27,36 9,18" fill="none" stroke="gray"></path></marker></defs><defs><marker orient="auto" markerHeight="36" markerWidth="57" refY="18" refX="18" id="ZERO_OR_MORE_START"><circle r="6" cy="18" cx="48" fill="white" stroke="gray"></circle><path d="M0,18 Q18,0 36,18 Q18,36 0,18" fill="none" stroke="gray"></path></marker></defs><defs><marker orient="auto" markerHeight="36" markerWidth="57" refY="18" refX="39" id="ZERO_OR_MORE_END"><circle r="6" cy="18" cx="9" fill="white" stroke="gray"></circle><path d="M21,18 Q39,0 57,18 Q39,36 21,18" fill="none" stroke="gray"></path></marker></defs><path style="stroke: gray; fill: none;" marker-start="url(#ONLY_ONE_START)" marker-end="url(#ONE_OR_MORE_END)" d="M380.406,644L380.406,656C380.406,668,380.406,692,367.827,712.333C355.247,732.667,330.088,749.333,317.509,757.667L304.93,766" class="er relationshipLine"></path><path style="stroke: gray; fill: none;" marker-start="url(#ONLY_ONE_START)" marker-end="url(#ONE_OR_MORE_END)" d="M380.406,421L380.406,431.167C380.406,441.333,380.406,461.667,380.406,483.833C380.406,506,380.406,530,380.406,542L380.406,554" class="er relationshipLine"></path><path style="stroke: gray; fill: none;" marker-start="url(#ONLY_ONE_START)" marker-end="url(#ONE_OR_MORE_END)" d="M103.605,666L103.605,674.333C103.605,682.667,103.605,699.333,118.486,716C133.367,732.667,163.129,749.333,178.01,757.667L192.891,766" class="er relationshipLine"></path><path style="stroke: gray; fill: none;" marker-start="url(#ONLY_ONE_START)" marker-end="url(#ONE_OR_MORE_END)" d="M175.949,197.656L163.892,209.714C151.835,221.771,127.72,245.885,115.663,275.609C103.605,305.333,103.605,340.667,103.605,376C103.605,411.333,103.605,446.667,103.605,472.667C103.605,498.667,103.605,515.333,103.605,523.667L103.605,532" class="er relationshipLine"></path><path style="stroke: gray; fill: none;" marker-start="url(#ONLY_ONE_START)" marker-end="url(#ONE_OR_MORE_END)" d="M271.473,220L272.962,228.333C274.451,236.667,277.428,253.333,288.509,271.833C299.589,290.333,318.771,310.667,328.362,320.833L337.953,331" class="er relationshipLine"></path><path style="stroke: gray; fill: none;" marker-start="url(#ONLY_ONE_START)" marker-end="url(#ONE_OR_MORE_END)" d="M331.262,177.978L351.804,193.315C372.346,208.652,413.431,239.326,451.23,265.169C489.03,291.013,523.544,312.026,540.801,322.532L558.059,333.038" class="er relationshipLine"></path><path style="stroke: gray; fill: none;" marker-start="url(#ONLY_ONE_START)" marker-end="url(#ONE_OR_MORE_END)" d="M650.494,154L634.497,173.333C618.501,192.667,586.508,231.333,553.813,260.833C521.117,290.333,487.719,310.667,471.02,320.833L454.321,331" class="er relationshipLine"></path><path style="stroke: gray; fill: none;" marker-start="url(#ONLY_ONE_START)" marker-end="url(#ONE_OR_MORE_END)" d="M689.958,154L696.403,173.333C702.847,192.667,715.736,231.333,714.319,259C712.902,286.667,697.178,303.333,689.317,311.667L681.455,320" class="er relationshipLine"></path><g transform="translate(189.28125,766 )" id="entity-dboCountries-2d9172c1-63db-5fa2-a157-19ca7ca794ba"><rect height="68" width="128.6484375" y="0" x="0" class="er entityBox"></rect><text style="dominant-baseline: middle; text-anchor: middle; font-size: 12px;" transform="translate(64.32421875,12)" y="0" x="0" id="text-entity-dboCountries-2d9172c1-63db-5fa2-a157-19ca7ca794ba" class="er entityLabel">dbo.Countries</text><rect height="22" width="67.828125" y="24" x="0" class="er attributeBoxOdd"></rect><text style="dominant-baseline: middle; font-size: 10.2px;" transform="translate(5,35)" y="0" x="0" id="text-entity-dboCountries-2d9172c1-63db-5fa2-a157-19ca7ca794ba-attr-1-type" class="er entityLabel">int</text><rect height="22" width="37.2109375" y="24" x="67.828125" class="er attributeBoxOdd"></rect><text style="dominant-baseline: middle; font-size: 10.2px;" transform="translate(72.828125,35)" y="0" x="0" id="text-entity-dboCountries-2d9172c1-63db-5fa2-a157-19ca7ca794ba-attr-1-name" class="er entityLabel">Id</text><rect height="22" width="23.609375" y="24" x="105.0390625" class="er attributeBoxOdd"></rect><text style="dominant-baseline: middle; font-size: 10.2px;" transform="translate(110.0390625,35)" y="0" x="0" id="text-entity-dboCountries-2d9172c1-63db-5fa2-a157-19ca7ca794ba-attr-1-comment" class="er entityLabel">PK</text><rect height="22" width="67.828125" y="46" x="0" class="er attributeBoxEven"></rect><text style="dominant-baseline: middle; font-size: 10.2px;" transform="translate(5,57)" y="0" x="0" id="text-entity-dboCountries-2d9172c1-63db-5fa2-a157-19ca7ca794ba-attr-2-type" class="er entityLabel">nvarchar(50)</text><rect height="22" width="37.2109375" y="46" x="67.828125" class="er attributeBoxEven"></rect><text style="dominant-baseline: middle; font-size: 10.2px;" transform="translate(72.828125,57)" y="0" x="0" id="text-entity-dboCountries-2d9172c1-63db-5fa2-a157-19ca7ca794ba-attr-2-name" class="er entityLabel">Name</text><rect height="22" width="23.609375" y="46" x="105.0390625" class="er attributeBoxEven"></rect><text style="dominant-baseline: middle; font-size: 10.2px;" transform="translate(110.0390625,57)" y="0" x="0" id="text-entity-dboCountries-2d9172c1-63db-5fa2-a157-19ca7ca794ba-attr-2-comment" class="er entityLabel"></text></g><g transform="translate(310.41015625,554 )" id="entity-dboDestinations-f9cd7773-c19d-50b0-9869-357661187b55"><rect height="90" width="139.9921875" y="0" x="0" class="er entityBox"></rect><text style="dominant-baseline: middle; text-anchor: middle; font-size: 12px;" transform="translate(69.99609375,12)" y="0" x="0" id="text-entity-dboDestinations-f9cd7773-c19d-50b0-9869-357661187b55" class="er entityLabel">dbo.Destinations</text><rect height="22" width="62.15625" y="24" x="0" class="er attributeBoxOdd"></rect><text style="dominant-baseline: middle; font-size: 10.2px;" transform="translate(5,35)" y="0" x="0" id="text-entity-dboDestinations-f9cd7773-c19d-50b0-9869-357661187b55-attr-1-type" class="er entityLabel">int</text><rect height="22" width="54.2265625" y="24" x="62.15625" class="er attributeBoxOdd"></rect><text style="dominant-baseline: middle; font-size: 10.2px;" transform="translate(67.15625,35)" y="0" x="0" id="text-entity-dboDestinations-f9cd7773-c19d-50b0-9869-357661187b55-attr-1-name" class="er entityLabel">Id</text><rect height="22" width="23.609375" y="24" x="116.3828125" class="er attributeBoxOdd"></rect><text style="dominant-baseline: middle; font-size: 10.2px;" transform="translate(121.3828125,35)" y="0" x="0" id="text-entity-dboDestinations-f9cd7773-c19d-50b0-9869-357661187b55-attr-1-comment" class="er entityLabel">PK</text><rect height="22" width="62.15625" y="46" x="0" class="er attributeBoxEven"></rect><text style="dominant-baseline: middle; font-size: 10.2px;" transform="translate(5,57)" y="0" x="0" id="text-entity-dboDestinations-f9cd7773-c19d-50b0-9869-357661187b55-attr-2-type" class="er entityLabel">varchar(50)</text><rect height="22" width="54.2265625" y="46" x="62.15625" class="er attributeBoxEven"></rect><text style="dominant-baseline: middle; font-size: 10.2px;" transform="translate(67.15625,57)" y="0" x="0" id="text-entity-dboDestinations-f9cd7773-c19d-50b0-9869-357661187b55-attr-2-name" class="er entityLabel">Name</text><rect height="22" width="23.609375" y="46" x="116.3828125" class="er attributeBoxEven"></rect><text style="dominant-baseline: middle; font-size: 10.2px;" transform="translate(121.3828125,57)" y="0" x="0" id="text-entity-dboDestinations-f9cd7773-c19d-50b0-9869-357661187b55-attr-2-comment" class="er entityLabel"></text><rect height="22" width="62.15625" y="68" x="0" class="er attributeBoxOdd"></rect><text style="dominant-baseline: middle; font-size: 10.2px;" transform="translate(5,79)" y="0" x="0" id="text-entity-dboDestinations-f9cd7773-c19d-50b0-9869-357661187b55-attr-3-type" class="er entityLabel">int</text><rect height="22" width="54.2265625" y="68" x="62.15625" class="er attributeBoxOdd"></rect><text style="dominant-baseline: middle; font-size: 10.2px;" transform="translate(67.15625,79)" y="0" x="0" id="text-entity-dboDestinations-f9cd7773-c19d-50b0-9869-357661187b55-attr-3-name" class="er entityLabel">CountryId</text><rect height="22" width="23.609375" y="68" x="116.3828125" class="er attributeBoxOdd"></rect><text style="dominant-baseline: middle; font-size: 10.2px;" transform="translate(121.3828125,79)" y="0" x="0" id="text-entity-dboDestinations-f9cd7773-c19d-50b0-9869-357661187b55-attr-3-comment" class="er entityLabel">FK</text></g><g transform="translate(558.05859375,320 )" id="entity-dboRooms-fa2cc62f-7a79-53e9-bbd0-4efdb092421e"><rect height="112" width="141.1328125" y="0" x="0" class="er entityBox"></rect><text style="dominant-baseline: middle; text-anchor: middle; font-size: 12px;" transform="translate(70.56640625,12)" y="0" x="0" id="text-entity-dboRooms-fa2cc62f-7a79-53e9-bbd0-4efdb092421e" class="er entityLabel">dbo.Rooms</text><rect height="22" width="62.15625" y="24" x="0" class="er attributeBoxOdd"></rect><text style="dominant-baseline: middle; font-size: 10.2px;" transform="translate(5,35)" y="0" x="0" id="text-entity-dboRooms-fa2cc62f-7a79-53e9-bbd0-4efdb092421e-attr-1-type" class="er entityLabel">int</text><rect height="22" width="55.3671875" y="24" x="62.15625" class="er attributeBoxOdd"></rect><text style="dominant-baseline: middle; font-size: 10.2px;" transform="translate(67.15625,35)" y="0" x="0" id="text-entity-dboRooms-fa2cc62f-7a79-53e9-bbd0-4efdb092421e-attr-1-name" class="er entityLabel">Id</text><rect height="22" width="23.609375" y="24" x="117.5234375" class="er attributeBoxOdd"></rect><text style="dominant-baseline: middle; font-size: 10.2px;" transform="translate(122.5234375,35)" y="0" x="0" id="text-entity-dboRooms-fa2cc62f-7a79-53e9-bbd0-4efdb092421e-attr-1-comment" class="er entityLabel">PK</text><rect height="22" width="62.15625" y="46" x="0" class="er attributeBoxEven"></rect><text style="dominant-baseline: middle; font-size: 10.2px;" transform="translate(5,57)" y="0" x="0" id="text-entity-dboRooms-fa2cc62f-7a79-53e9-bbd0-4efdb092421e-attr-2-type" class="er entityLabel">varchar(40)</text><rect height="22" width="55.3671875" y="46" x="62.15625" class="er attributeBoxEven"></rect><text style="dominant-baseline: middle; font-size: 10.2px;" transform="translate(67.15625,57)" y="0" x="0" id="text-entity-dboRooms-fa2cc62f-7a79-53e9-bbd0-4efdb092421e-attr-2-name" class="er entityLabel">Type</text><rect height="22" width="23.609375" y="46" x="117.5234375" class="er attributeBoxEven"></rect><text style="dominant-baseline: middle; font-size: 10.2px;" transform="translate(122.5234375,57)" y="0" x="0" id="text-entity-dboRooms-fa2cc62f-7a79-53e9-bbd0-4efdb092421e-attr-2-comment" class="er entityLabel"></text><rect height="22" width="62.15625" y="68" x="0" class="er attributeBoxOdd"></rect><text style="dominant-baseline: middle; font-size: 10.2px;" transform="translate(5,79)" y="0" x="0" id="text-entity-dboRooms-fa2cc62f-7a79-53e9-bbd0-4efdb092421e-attr-3-type" class="er entityLabel">decimal</text><rect height="22" width="55.3671875" y="68" x="62.15625" class="er attributeBoxOdd"></rect><text style="dominant-baseline: middle; font-size: 10.2px;" transform="translate(67.15625,79)" y="0" x="0" id="text-entity-dboRooms-fa2cc62f-7a79-53e9-bbd0-4efdb092421e-attr-3-name" class="er entityLabel">Price</text><rect height="22" width="23.609375" y="68" x="117.5234375" class="er attributeBoxOdd"></rect><text style="dominant-baseline: middle; font-size: 10.2px;" transform="translate(122.5234375,79)" y="0" x="0" id="text-entity-dboRooms-fa2cc62f-7a79-53e9-bbd0-4efdb092421e-attr-3-comment" class="er entityLabel"></text><rect height="22" width="62.15625" y="90" x="0" class="er attributeBoxEven"></rect><text style="dominant-baseline: middle; font-size: 10.2px;" transform="translate(5,101)" y="0" x="0" id="text-entity-dboRooms-fa2cc62f-7a79-53e9-bbd0-4efdb092421e-attr-4-type" class="er entityLabel">int</text><rect height="22" width="55.3671875" y="90" x="62.15625" class="er attributeBoxEven"></rect><text style="dominant-baseline: middle; font-size: 10.2px;" transform="translate(67.15625,101)" y="0" x="0" id="text-entity-dboRooms-fa2cc62f-7a79-53e9-bbd0-4efdb092421e-attr-4-name" class="er entityLabel">BedCount</text><rect height="22" width="23.609375" y="90" x="117.5234375" class="er attributeBoxEven"></rect><text style="dominant-baseline: middle; font-size: 10.2px;" transform="translate(122.5234375,101)" y="0" x="0" id="text-entity-dboRooms-fa2cc62f-7a79-53e9-bbd0-4efdb092421e-attr-4-comment" class="er entityLabel"></text></g><g transform="translate(302.75390625,331 )" id="entity-dboHotels-113fbbdc-3ef9-53e7-b239-43947f2883db"><rect height="90" width="155.3046875" y="0" x="0" class="er entityBox"></rect><text style="dominant-baseline: middle; text-anchor: middle; font-size: 12px;" transform="translate(77.65234375,12)" y="0" x="0" id="text-entity-dboHotels-113fbbdc-3ef9-53e7-b239-43947f2883db" class="er entityLabel">dbo.Hotels</text><rect height="22" width="62.15625" y="24" x="0" class="er attributeBoxOdd"></rect><text style="dominant-baseline: middle; font-size: 10.2px;" transform="translate(5,35)" y="0" x="0" id="text-entity-dboHotels-113fbbdc-3ef9-53e7-b239-43947f2883db-attr-1-type" class="er entityLabel">int</text><rect height="22" width="69.5390625" y="24" x="62.15625" class="er attributeBoxOdd"></rect><text style="dominant-baseline: middle; font-size: 10.2px;" transform="translate(67.15625,35)" y="0" x="0" id="text-entity-dboHotels-113fbbdc-3ef9-53e7-b239-43947f2883db-attr-1-name" class="er entityLabel">Id</text><rect height="22" width="23.609375" y="24" x="131.6953125" class="er attributeBoxOdd"></rect><text style="dominant-baseline: middle; font-size: 10.2px;" transform="translate(136.6953125,35)" y="0" x="0" id="text-entity-dboHotels-113fbbdc-3ef9-53e7-b239-43947f2883db-attr-1-comment" class="er entityLabel">PK</text><rect height="22" width="62.15625" y="46" x="0" class="er attributeBoxEven"></rect><text style="dominant-baseline: middle; font-size: 10.2px;" transform="translate(5,57)" y="0" x="0" id="text-entity-dboHotels-113fbbdc-3ef9-53e7-b239-43947f2883db-attr-2-type" class="er entityLabel">varchar(50)</text><rect height="22" width="69.5390625" y="46" x="62.15625" class="er attributeBoxEven"></rect><text style="dominant-baseline: middle; font-size: 10.2px;" transform="translate(67.15625,57)" y="0" x="0" id="text-entity-dboHotels-113fbbdc-3ef9-53e7-b239-43947f2883db-attr-2-name" class="er entityLabel">Name</text><rect height="22" width="23.609375" y="46" x="131.6953125" class="er attributeBoxEven"></rect><text style="dominant-baseline: middle; font-size: 10.2px;" transform="translate(136.6953125,57)" y="0" x="0" id="text-entity-dboHotels-113fbbdc-3ef9-53e7-b239-43947f2883db-attr-2-comment" class="er entityLabel"></text><rect height="22" width="62.15625" y="68" x="0" class="er attributeBoxOdd"></rect><text style="dominant-baseline: middle; font-size: 10.2px;" transform="translate(5,79)" y="0" x="0" id="text-entity-dboHotels-113fbbdc-3ef9-53e7-b239-43947f2883db-attr-3-type" class="er entityLabel">int</text><rect height="22" width="69.5390625" y="68" x="62.15625" class="er attributeBoxOdd"></rect><text style="dominant-baseline: middle; font-size: 10.2px;" transform="translate(67.15625,79)" y="0" x="0" id="text-entity-dboHotels-113fbbdc-3ef9-53e7-b239-43947f2883db-attr-3-name" class="er entityLabel">DestinationId</text><rect height="22" width="23.609375" y="68" x="131.6953125" class="er attributeBoxOdd"></rect><text style="dominant-baseline: middle; font-size: 10.2px;" transform="translate(136.6953125,79)" y="0" x="0" id="text-entity-dboHotels-113fbbdc-3ef9-53e7-b239-43947f2883db-attr-3-comment" class="er entityLabel">FK</text></g><g transform="translate(20,532 )" id="entity-dboTourists-9c14cd7a-16fb-5e77-835b-195b92aa4b5b"><rect height="134" width="167.2109375" y="0" x="0" class="er entityBox"></rect><text style="dominant-baseline: middle; text-anchor: middle; font-size: 12px;" transform="translate(83.60546875,12)" y="0" x="0" id="text-entity-dboTourists-9c14cd7a-16fb-5e77-835b-195b92aa4b5b" class="er entityLabel">dbo.Tourists</text><rect height="22" width="67.828125" y="24" x="0" class="er attributeBoxOdd"></rect><text style="dominant-baseline: middle; font-size: 10.2px;" transform="translate(5,35)" y="0" x="0" id="text-entity-dboTourists-9c14cd7a-16fb-5e77-835b-195b92aa4b5b-attr-1-type" class="er entityLabel">int</text><rect height="22" width="75.7734375" y="24" x="67.828125" class="er attributeBoxOdd"></rect><text style="dominant-baseline: middle; font-size: 10.2px;" transform="translate(72.828125,35)" y="0" x="0" id="text-entity-dboTourists-9c14cd7a-16fb-5e77-835b-195b92aa4b5b-attr-1-name" class="er entityLabel">Id</text><rect height="22" width="23.609375" y="24" x="143.6015625" class="er attributeBoxOdd"></rect><text style="dominant-baseline: middle; font-size: 10.2px;" transform="translate(148.6015625,35)" y="0" x="0" id="text-entity-dboTourists-9c14cd7a-16fb-5e77-835b-195b92aa4b5b-attr-1-comment" class="er entityLabel">PK</text><rect height="22" width="67.828125" y="46" x="0" class="er attributeBoxEven"></rect><text style="dominant-baseline: middle; font-size: 10.2px;" transform="translate(5,57)" y="0" x="0" id="text-entity-dboTourists-9c14cd7a-16fb-5e77-835b-195b92aa4b5b-attr-2-type" class="er entityLabel">nvarchar(80)</text><rect height="22" width="75.7734375" y="46" x="67.828125" class="er attributeBoxEven"></rect><text style="dominant-baseline: middle; font-size: 10.2px;" transform="translate(72.828125,57)" y="0" x="0" id="text-entity-dboTourists-9c14cd7a-16fb-5e77-835b-195b92aa4b5b-attr-2-name" class="er entityLabel">Name</text><rect height="22" width="23.609375" y="46" x="143.6015625" class="er attributeBoxEven"></rect><text style="dominant-baseline: middle; font-size: 10.2px;" transform="translate(148.6015625,57)" y="0" x="0" id="text-entity-dboTourists-9c14cd7a-16fb-5e77-835b-195b92aa4b5b-attr-2-comment" class="er entityLabel"></text><rect height="22" width="67.828125" y="68" x="0" class="er attributeBoxOdd"></rect><text style="dominant-baseline: middle; font-size: 10.2px;" transform="translate(5,79)" y="0" x="0" id="text-entity-dboTourists-9c14cd7a-16fb-5e77-835b-195b92aa4b5b-attr-3-type" class="er entityLabel">varchar(20)</text><rect height="22" width="75.7734375" y="68" x="67.828125" class="er attributeBoxOdd"></rect><text style="dominant-baseline: middle; font-size: 10.2px;" transform="translate(72.828125,79)" y="0" x="0" id="text-entity-dboTourists-9c14cd7a-16fb-5e77-835b-195b92aa4b5b-attr-3-name" class="er entityLabel">PhoneNumber</text><rect height="22" width="23.609375" y="68" x="143.6015625" class="er attributeBoxOdd"></rect><text style="dominant-baseline: middle; font-size: 10.2px;" transform="translate(148.6015625,79)" y="0" x="0" id="text-entity-dboTourists-9c14cd7a-16fb-5e77-835b-195b92aa4b5b-attr-3-comment" class="er entityLabel"></text><rect height="22" width="67.828125" y="90" x="0" class="er attributeBoxEven"></rect><text style="dominant-baseline: middle; font-size: 10.2px;" transform="translate(5,101)" y="0" x="0" id="text-entity-dboTourists-9c14cd7a-16fb-5e77-835b-195b92aa4b5b-attr-4-type" class="er entityLabel">varchar(80)</text><rect height="22" width="75.7734375" y="90" x="67.828125" class="er attributeBoxEven"></rect><text style="dominant-baseline: middle; font-size: 10.2px;" transform="translate(72.828125,101)" y="0" x="0" id="text-entity-dboTourists-9c14cd7a-16fb-5e77-835b-195b92aa4b5b-attr-4-name" class="er entityLabel">Email</text><rect height="22" width="23.609375" y="90" x="143.6015625" class="er attributeBoxEven"></rect><text style="dominant-baseline: middle; font-size: 10.2px;" transform="translate(148.6015625,101)" y="0" x="0" id="text-entity-dboTourists-9c14cd7a-16fb-5e77-835b-195b92aa4b5b-attr-4-comment" class="er entityLabel"></text><rect height="22" width="67.828125" y="112" x="0" class="er attributeBoxOdd"></rect><text style="dominant-baseline: middle; font-size: 10.2px;" transform="translate(5,123)" y="0" x="0" id="text-entity-dboTourists-9c14cd7a-16fb-5e77-835b-195b92aa4b5b-attr-5-type" class="er entityLabel">int</text><rect height="22" width="75.7734375" y="112" x="67.828125" class="er attributeBoxOdd"></rect><text style="dominant-baseline: middle; font-size: 10.2px;" transform="translate(72.828125,123)" y="0" x="0" id="text-entity-dboTourists-9c14cd7a-16fb-5e77-835b-195b92aa4b5b-attr-5-name" class="er entityLabel">CountryId</text><rect height="22" width="23.609375" y="112" x="143.6015625" class="er attributeBoxOdd"></rect><text style="dominant-baseline: middle; font-size: 10.2px;" transform="translate(148.6015625,123)" y="0" x="0" id="text-entity-dboTourists-9c14cd7a-16fb-5e77-835b-195b92aa4b5b-attr-5-comment" class="er entityLabel">FK</text></g><g transform="translate(175.94921875,20 )" id="entity-dboBookings-ccdbffe9-a16c-541b-a814-83305ff3f20b"><rect height="200" width="155.3125" y="0" x="0" class="er entityBox"></rect><text style="dominant-baseline: middle; text-anchor: middle; font-size: 12px;" transform="translate(77.65625,12)" y="0" x="0" id="text-entity-dboBookings-ccdbffe9-a16c-541b-a814-83305ff3f20b" class="er entityLabel">dbo.Bookings</text><rect height="22" width="54.796875" y="24" x="0" class="er attributeBoxOdd"></rect><text style="dominant-baseline: middle; font-size: 10.2px;" transform="translate(5,35)" y="0" x="0" id="text-entity-dboBookings-ccdbffe9-a16c-541b-a814-83305ff3f20b-attr-1-type" class="er entityLabel">int</text><rect height="22" width="76.90625" y="24" x="54.796875" class="er attributeBoxOdd"></rect><text style="dominant-baseline: middle; font-size: 10.2px;" transform="translate(59.796875,35)" y="0" x="0" id="text-entity-dboBookings-ccdbffe9-a16c-541b-a814-83305ff3f20b-attr-1-name" class="er entityLabel">Id</text><rect height="22" width="23.609375" y="24" x="131.703125" class="er attributeBoxOdd"></rect><text style="dominant-baseline: middle; font-size: 10.2px;" transform="translate(136.703125,35)" y="0" x="0" id="text-entity-dboBookings-ccdbffe9-a16c-541b-a814-83305ff3f20b-attr-1-comment" class="er entityLabel">PK</text><rect height="22" width="54.796875" y="46" x="0" class="er attributeBoxEven"></rect><text style="dominant-baseline: middle; font-size: 10.2px;" transform="translate(5,57)" y="0" x="0" id="text-entity-dboBookings-ccdbffe9-a16c-541b-a814-83305ff3f20b-attr-2-type" class="er entityLabel">datetime2</text><rect height="22" width="76.90625" y="46" x="54.796875" class="er attributeBoxEven"></rect><text style="dominant-baseline: middle; font-size: 10.2px;" transform="translate(59.796875,57)" y="0" x="0" id="text-entity-dboBookings-ccdbffe9-a16c-541b-a814-83305ff3f20b-attr-2-name" class="er entityLabel">ArrivalDate</text><rect height="22" width="23.609375" y="46" x="131.703125" class="er attributeBoxEven"></rect><text style="dominant-baseline: middle; font-size: 10.2px;" transform="translate(136.703125,57)" y="0" x="0" id="text-entity-dboBookings-ccdbffe9-a16c-541b-a814-83305ff3f20b-attr-2-comment" class="er entityLabel"></text><rect height="22" width="54.796875" y="68" x="0" class="er attributeBoxOdd"></rect><text style="dominant-baseline: middle; font-size: 10.2px;" transform="translate(5,79)" y="0" x="0" id="text-entity-dboBookings-ccdbffe9-a16c-541b-a814-83305ff3f20b-attr-3-type" class="er entityLabel">datetime2</text><rect height="22" width="76.90625" y="68" x="54.796875" class="er attributeBoxOdd"></rect><text style="dominant-baseline: middle; font-size: 10.2px;" transform="translate(59.796875,79)" y="0" x="0" id="text-entity-dboBookings-ccdbffe9-a16c-541b-a814-83305ff3f20b-attr-3-name" class="er entityLabel">DepartureDate</text><rect height="22" width="23.609375" y="68" x="131.703125" class="er attributeBoxOdd"></rect><text style="dominant-baseline: middle; font-size: 10.2px;" transform="translate(136.703125,79)" y="0" x="0" id="text-entity-dboBookings-ccdbffe9-a16c-541b-a814-83305ff3f20b-attr-3-comment" class="er entityLabel"></text><rect height="22" width="54.796875" y="90" x="0" class="er attributeBoxEven"></rect><text style="dominant-baseline: middle; font-size: 10.2px;" transform="translate(5,101)" y="0" x="0" id="text-entity-dboBookings-ccdbffe9-a16c-541b-a814-83305ff3f20b-attr-4-type" class="er entityLabel">int</text><rect height="22" width="76.90625" y="90" x="54.796875" class="er attributeBoxEven"></rect><text style="dominant-baseline: middle; font-size: 10.2px;" transform="translate(59.796875,101)" y="0" x="0" id="text-entity-dboBookings-ccdbffe9-a16c-541b-a814-83305ff3f20b-attr-4-name" class="er entityLabel">AdultsCount</text><rect height="22" width="23.609375" y="90" x="131.703125" class="er attributeBoxEven"></rect><text style="dominant-baseline: middle; font-size: 10.2px;" transform="translate(136.703125,101)" y="0" x="0" id="text-entity-dboBookings-ccdbffe9-a16c-541b-a814-83305ff3f20b-attr-4-comment" class="er entityLabel"></text><rect height="22" width="54.796875" y="112" x="0" class="er attributeBoxOdd"></rect><text style="dominant-baseline: middle; font-size: 10.2px;" transform="translate(5,123)" y="0" x="0" id="text-entity-dboBookings-ccdbffe9-a16c-541b-a814-83305ff3f20b-attr-5-type" class="er entityLabel">int</text><rect height="22" width="76.90625" y="112" x="54.796875" class="er attributeBoxOdd"></rect><text style="dominant-baseline: middle; font-size: 10.2px;" transform="translate(59.796875,123)" y="0" x="0" id="text-entity-dboBookings-ccdbffe9-a16c-541b-a814-83305ff3f20b-attr-5-name" class="er entityLabel">ChildrenCount</text><rect height="22" width="23.609375" y="112" x="131.703125" class="er attributeBoxOdd"></rect><text style="dominant-baseline: middle; font-size: 10.2px;" transform="translate(136.703125,123)" y="0" x="0" id="text-entity-dboBookings-ccdbffe9-a16c-541b-a814-83305ff3f20b-attr-5-comment" class="er entityLabel"></text><rect height="22" width="54.796875" y="134" x="0" class="er attributeBoxEven"></rect><text style="dominant-baseline: middle; font-size: 10.2px;" transform="translate(5,145)" y="0" x="0" id="text-entity-dboBookings-ccdbffe9-a16c-541b-a814-83305ff3f20b-attr-6-type" class="er entityLabel">int</text><rect height="22" width="76.90625" y="134" x="54.796875" class="er attributeBoxEven"></rect><text style="dominant-baseline: middle; font-size: 10.2px;" transform="translate(59.796875,145)" y="0" x="0" id="text-entity-dboBookings-ccdbffe9-a16c-541b-a814-83305ff3f20b-attr-6-name" class="er entityLabel">TouristId</text><rect height="22" width="23.609375" y="134" x="131.703125" class="er attributeBoxEven"></rect><text style="dominant-baseline: middle; font-size: 10.2px;" transform="translate(136.703125,145)" y="0" x="0" id="text-entity-dboBookings-ccdbffe9-a16c-541b-a814-83305ff3f20b-attr-6-comment" class="er entityLabel">FK</text><rect height="22" width="54.796875" y="156" x="0" class="er attributeBoxOdd"></rect><text style="dominant-baseline: middle; font-size: 10.2px;" transform="translate(5,167)" y="0" x="0" id="text-entity-dboBookings-ccdbffe9-a16c-541b-a814-83305ff3f20b-attr-7-type" class="er entityLabel">int</text><rect height="22" width="76.90625" y="156" x="54.796875" class="er attributeBoxOdd"></rect><text style="dominant-baseline: middle; font-size: 10.2px;" transform="translate(59.796875,167)" y="0" x="0" id="text-entity-dboBookings-ccdbffe9-a16c-541b-a814-83305ff3f20b-attr-7-name" class="er entityLabel">HotelId</text><rect height="22" width="23.609375" y="156" x="131.703125" class="er attributeBoxOdd"></rect><text style="dominant-baseline: middle; font-size: 10.2px;" transform="translate(136.703125,167)" y="0" x="0" id="text-entity-dboBookings-ccdbffe9-a16c-541b-a814-83305ff3f20b-attr-7-comment" class="er entityLabel">FK</text><rect height="22" width="54.796875" y="178" x="0" class="er attributeBoxEven"></rect><text style="dominant-baseline: middle; font-size: 10.2px;" transform="translate(5,189)" y="0" x="0" id="text-entity-dboBookings-ccdbffe9-a16c-541b-a814-83305ff3f20b-attr-8-type" class="er entityLabel">int</text><rect height="22" width="76.90625" y="178" x="54.796875" class="er attributeBoxEven"></rect><text style="dominant-baseline: middle; font-size: 10.2px;" transform="translate(59.796875,189)" y="0" x="0" id="text-entity-dboBookings-ccdbffe9-a16c-541b-a814-83305ff3f20b-attr-8-name" class="er entityLabel">RoomId</text><rect height="22" width="23.609375" y="178" x="131.703125" class="er attributeBoxEven"></rect><text style="dominant-baseline: middle; font-size: 10.2px;" transform="translate(136.703125,189)" y="0" x="0" id="text-entity-dboBookings-ccdbffe9-a16c-541b-a814-83305ff3f20b-attr-8-comment" class="er entityLabel">FK</text></g><g transform="translate(615.93359375,86 )" id="entity-dboHotelsRooms-1954a6f3-9c43-5073-bba3-52cc10964ada"><rect height="68" width="125.3828125" y="0" x="0" class="er entityBox"></rect><text style="dominant-baseline: middle; text-anchor: middle; font-size: 12px;" transform="translate(62.69140625,12)" y="0" x="0" id="text-entity-dboHotelsRooms-1954a6f3-9c43-5073-bba3-52cc10964ada" class="er entityLabel">dbo.HotelsRooms</text><rect height="22" width="26.299479166666668" y="24" x="0" class="er attributeBoxOdd"></rect><text style="dominant-baseline: middle; font-size: 10.2px;" transform="translate(5,35)" y="0" x="0" id="text-entity-dboHotelsRooms-1954a6f3-9c43-5073-bba3-52cc10964ada-attr-1-type" class="er entityLabel">int</text><rect height="22" width="51.244791666666664" y="24" x="26.299479166666668" class="er attributeBoxOdd"></rect><text style="dominant-baseline: middle; font-size: 10.2px;" transform="translate(31.299479166666668,35)" y="0" x="0" id="text-entity-dboHotelsRooms-1954a6f3-9c43-5073-bba3-52cc10964ada-attr-1-name" class="er entityLabel">HotelId</text><rect height="22" width="47.838541666666664" y="24" x="77.54427083333333" class="er attributeBoxOdd"></rect><text style="dominant-baseline: middle; font-size: 10.2px;" transform="translate(82.54427083333333,35)" y="0" x="0" id="text-entity-dboHotelsRooms-1954a6f3-9c43-5073-bba3-52cc10964ada-attr-1-comment" class="er entityLabel">PK, FK</text><rect height="22" width="26.299479166666668" y="46" x="0" class="er attributeBoxEven"></rect><text style="dominant-baseline: middle; font-size: 10.2px;" transform="translate(5,57)" y="0" x="0" id="text-entity-dboHotelsRooms-1954a6f3-9c43-5073-bba3-52cc10964ada-attr-2-type" class="er entityLabel">int</text><rect height="22" width="51.244791666666664" y="46" x="26.299479166666668" class="er attributeBoxEven"></rect><text style="dominant-baseline: middle; font-size: 10.2px;" transform="translate(31.299479166666668,57)" y="0" x="0" id="text-entity-dboHotelsRooms-1954a6f3-9c43-5073-bba3-52cc10964ada-attr-2-name" class="er entityLabel">RoomId</text><rect height="22" width="47.838541666666664" y="46" x="77.54427083333333" class="er attributeBoxEven"></rect><text style="dominant-baseline: middle; font-size: 10.2px;" transform="translate(82.54427083333333,57)" y="0" x="0" id="text-entity-dboHotelsRooms-1954a6f3-9c43-5073-bba3-52cc10964ada-attr-2-comment" class="er entityLabel">PK, FK</text></g><rect height="14" width="10.0078125" y="710.6260986328125" x="359.2165222167969" class="er relationshipLabelBox"></rect><text style="text-anchor: middle; dominant-baseline: middle; font-size: 12px;" y="717.6260986328125" x="364.2204284667969" id="rel1" class="er relationshipLabel">Id</text><rect height="14" width="10.0078125" y="480.5" x="375.402099609375" class="er relationshipLabelBox"></rect><text style="text-anchor: middle; dominant-baseline: middle; font-size: 12px;" y="487.5" x="380.406005859375" id="rel2" class="er relationshipLabel">Id</text><rect height="14" width="10.0078125" y="721.25537109375" x="126.82347106933594" class="er relationshipLabelBox"></rect><text style="text-anchor: middle; dominant-baseline: middle; font-size: 12px;" y="728.25537109375" x="131.82737731933594" id="rel3" class="er relationshipLabel">Id</text><rect height="14" width="10.0078125" y="346.4853210449219" x="98.71792602539062" class="er relationshipLabelBox"></rect><text style="text-anchor: middle; dominant-baseline: middle; font-size: 12px;" y="353.4853210449219" x="103.72183227539062" id="rel4" class="er relationshipLabel">Id</text><rect height="14" width="10.0078125" y="274.1590881347656" x="289.62353515625" class="er relationshipLabelBox"></rect><text style="text-anchor: middle; dominant-baseline: middle; font-size: 12px;" y="281.1590881347656" x="294.62744140625" id="rel5" class="er relationshipLabel">Id</text><rect height="14" width="10.0078125" y="252.0042724609375" x="437.2764892578125" class="er relationshipLabelBox"></rect><text style="text-anchor: middle; dominant-baseline: middle; font-size: 12px;" y="259.0042724609375" x="442.2803955078125" id="rel6" class="er relationshipLabel">Id</text><rect height="14.000015258789062" width="10.0078125" y="246.26932525634766" x="556.9740600585938" class="er relationshipLabelBox"></rect><text style="text-anchor: middle; dominant-baseline: middle; font-size: 12px;" y="253.2693328857422" x="561.9779663085938" id="rel7" class="er relationshipLabel">Id</text><rect height="14" width="10.0078125" y="233.4372100830078" x="708.511962890625" class="er relationshipLabelBox"></rect><text style="text-anchor: middle; dominant-baseline: middle; font-size: 12px;" y="240.4372100830078" x="713.515869140625" id="rel8" class="er relationshipLabel">Id</text></svg>